<?xml version="1.0" standalone="no"?>
<!DOCTYPE svg PUBLIC "-//W3C//DTD SVG 20010904//EN"
 "http://www.w3.org/TR/2001/REC-SVG-20010904/DTD/svg10.dtd">
<svg version="1.0" xmlns="http://www.w3.org/2000/svg"
 width="1280.000000pt" height="862.000000pt" viewBox="0 0 1280.000000 862.000000"
 preserveAspectRatio="xMidYMid meet">
<metadata>
Created by potrace 1.15, written by Peter Selinger 2001-2017
</metadata>
<g transform="translate(0.000000,862.000000) scale(0.100000,-0.100000)"
fill="#000000" stroke="none">
<path d="M7363 8578 c-47 -44 -226 -278 -323 -423 -29 -44 -110 -156 -179
-250 -160 -217 -262 -367 -255 -374 12 -12 53 42 382 507 168 238 196 272 248
312 30 22 54 47 54 54 0 7 25 42 56 76 31 35 61 76 66 92 5 15 14 28 19 28 5
0 9 5 9 10 0 22 -33 8 -77 -32z"/>
<path d="M4472 8099 c2 -7 20 -18 39 -22 150 -39 228 -75 435 -200 77 -46 159
-94 184 -106 l45 -22 -31 29 c-41 39 -284 188 -364 225 -36 16 -97 44 -136 62
-80 38 -180 58 -172 34z"/>
<path d="M5196 7726 c5 -13 46 -36 64 -36 17 0 -1 27 -26 39 -33 15 -45 14
-38 -3z"/>
<path d="M5280 7681 c0 -15 41 -41 64 -41 20 0 20 0 1 19 -24 23 -65 37 -65
22z"/>
<path d="M5389 7606 c21 -22 71 -41 71 -27 0 10 -65 51 -80 51 -9 0 -6 -8 9
-24z"/>
<path d="M5480 7552 c0 -5 19 -22 43 -37 23 -15 92 -63 152 -105 151 -107 293
-197 275 -175 -53 64 -470 346 -470 317z"/>
<path d="M6568 7498 c-23 -19 -52 -68 -40 -68 6 0 19 12 30 28 25 36 34 52 30
52 -3 0 -11 -6 -20 -12z"/>
<path d="M6445 7397 c-8 -11 -12 -24 -9 -28 3 -5 -5 -26 -16 -49 -36 -71 7
-40 64 45 32 49 32 50 1 51 -15 1 -31 -6 -40 -19z"/>
<path d="M6366 7228 c-24 -42 -62 -122 -106 -223 -26 -60 -30 -55 -55 68 -10
48 -21 87 -25 87 -4 0 -20 -17 -36 -37 -15 -21 -29 -40 -31 -42 -2 -3 -26 20
-54 50 l-51 54 27 -48 c36 -65 30 -92 -50 -207 -83 -120 -87 -153 -23 -212 51
-47 52 -68 10 -165 -18 -39 -32 -83 -32 -97 0 -14 -2 -26 -5 -26 -3 0 -36 15
-73 33 -73 37 -156 67 -242 91 -120 31 -339 75 -410 81 -103 8 -663 9 -780 0
-163 -12 -729 -103 -900 -145 -41 -10 -120 -26 -175 -35 -371 -61 -919 -232
-1230 -385 -77 -37 -178 -85 -225 -105 -107 -46 -181 -86 -247 -136 -29 -22
-59 -39 -67 -39 -9 0 -20 -8 -25 -19 -6 -10 -21 -21 -34 -25 -14 -3 -52 -26
-86 -51 -35 -25 -78 -53 -97 -62 -19 -9 -35 -21 -35 -27 -1 -6 -2 -16 -3 -23
0 -6 -29 -37 -63 -68 -35 -31 -67 -71 -74 -90 -11 -30 -16 -34 -38 -28 -28 6
-27 6 -55 4 -24 -1 -86 -64 -86 -88 0 -10 -22 -41 -50 -68 -27 -27 -50 -52
-50 -56 0 -4 28 -1 62 7 35 7 64 11 66 9 2 -2 -21 -22 -51 -45 -67 -50 -89
-90 -49 -90 50 0 160 103 147 137 -8 21 12 24 54 7 44 -17 97 -72 84 -85 -12
-12 -53 1 -53 17 0 19 -3 18 -59 -11 -53 -26 -91 -67 -91 -96 0 -11 -7 -17
-17 -17 -10 0 -30 -3 -45 -7 -23 -6 -28 -4 -28 10 0 15 -1 15 -16 1 -44 -45
-82 -65 -134 -72 l-55 -6 73 68 c39 38 72 76 72 85 0 9 -8 27 -19 40 l-18 23
-93 -90 c-51 -49 -104 -106 -117 -128 -14 -21 -57 -75 -97 -120 -40 -44 -103
-124 -141 -176 -98 -137 -95 -134 -112 -110 -14 19 -16 19 -41 4 -34 -19 -98
-110 -108 -150 -3 -16 -26 -76 -51 -133 -25 -58 -47 -126 -50 -155 -4 -47 0
-60 49 -155 l54 -105 123 -74 c80 -48 173 -93 264 -128 78 -30 145 -54 151
-54 5 0 45 -18 88 -41 50 -25 135 -55 226 -79 81 -21 208 -61 283 -88 166 -61
239 -77 324 -69 91 9 155 -11 330 -103 184 -96 256 -121 358 -124 l78 -2 72
-71 c86 -83 128 -116 222 -171 94 -55 210 -105 320 -137 52 -15 113 -41 144
-61 34 -23 62 -34 76 -32 20 4 24 -3 43 -67 16 -54 37 -92 82 -152 65 -86 69
-89 237 -158 62 -26 134 -64 160 -84 27 -21 53 -36 58 -34 6 2 28 -17 48 -42
30 -35 41 -60 50 -108 9 -53 19 -72 70 -134 77 -94 137 -134 193 -132 48 3
150 -43 159 -71 6 -19 38 -34 92 -45 17 -3 37 -13 44 -21 11 -13 9 -14 -14 -9
-42 11 -34 -14 28 -97 30 -40 55 -77 55 -83 0 -5 16 -48 36 -95 l36 -85 78
-43 c85 -46 113 -51 149 -26 20 15 28 15 65 3 22 -8 77 -14 121 -14 70 0 80 2
79 17 -3 28 31 22 71 -13 19 -17 35 -27 35 -22 0 5 6 17 13 27 12 16 17 17 36
6 22 -11 23 -16 16 -76 l-7 -65 41 -40 c41 -41 51 -44 103 -24 11 4 24 -23 50
-102 l36 -108 -14 -160 c-8 -88 -18 -209 -22 -270 -8 -128 -1 -295 11 -253 13
47 27 210 27 320 0 74 4 109 13 115 6 4 53 8 102 8 l90 0 3 30 c2 21 -9 50
-38 97 -34 56 -40 75 -40 121 0 66 8 74 91 93 51 12 72 24 113 62 92 87 134
110 216 118 50 5 79 13 91 25 12 12 53 25 114 36 52 10 94 22 92 27 -2 5 -18
15 -35 20 -48 17 -23 37 35 29 l45 -6 63 68 c57 62 65 67 93 62 30 -6 31 -5
62 76 17 45 34 95 37 110 4 20 8 25 14 16 10 -17 29 28 36 86 4 27 16 51 39
75 38 40 54 77 54 123 0 18 9 56 20 85 24 62 26 111 5 138 -13 18 -14 16 -15
-21 -1 -42 -12 -34 -24 17 -6 25 -4 28 19 28 38 0 84 -22 156 -75 35 -26 75
-52 89 -58 21 -9 12 -12 -65 -17 -91 -6 -128 -18 -138 -44 -5 -11 17 -15 121
-21 123 -7 126 -7 144 15 10 13 20 21 22 19 2 -2 16 -26 31 -54 37 -65 54 -85
75 -85 9 0 26 -13 38 -30 13 -16 28 -30 35 -30 9 0 11 -13 9 -40 -4 -43 16
-77 102 -169 84 -88 125 -103 341 -122 137 -11 203 -30 248 -69 43 -36 113
-80 131 -80 7 0 19 7 26 15 23 28 42 18 35 -19 -6 -28 -2 -39 25 -69 32 -37
177 -117 211 -117 30 0 11 29 -35 52 -87 43 -98 71 -34 89 81 21 137 57 181
116 118 157 131 168 191 182 61 14 152 79 196 141 16 23 26 28 33 21 14 -14
73 -13 117 2 28 10 40 10 61 0 34 -17 61 -7 120 46 39 34 48 48 54 88 3 27 18
75 32 108 56 135 83 221 83 272 0 28 3 59 6 68 11 28 60 46 124 43 55 -2 63 0
90 27 44 44 67 147 71 318 4 138 4 138 29 144 14 3 30 9 35 14 6 4 28 9 49 11
22 2 41 9 44 16 5 15 -32 16 -59 2 -15 -8 -19 -7 -19 4 0 29 35 37 85 20 42
-14 49 -14 70 0 39 26 73 79 88 136 21 78 31 180 19 180 -24 0 -20 34 7 68 21
27 31 53 36 93 l7 57 51 -2 c49 -1 52 0 79 41 16 23 45 75 64 115 53 107 104
183 133 197 66 30 71 35 71 70 l0 33 55 -7 c46 -5 63 -3 101 15 46 23 163 143
215 222 16 23 51 63 78 88 40 37 52 55 57 88 6 37 9 41 29 36 25 -6 50 18 42
41 -4 10 5 17 31 25 20 5 41 10 45 10 20 0 220 146 294 214 45 42 88 76 97 76
9 0 16 7 16 15 0 21 50 43 87 38 44 -7 117 19 260 92 167 86 207 114 211 148
4 36 39 53 79 40 37 -13 82 9 160 80 32 29 81 70 108 92 64 51 86 77 80 94 -4
9 0 11 10 7 17 -6 30 3 102 73 117 115 142 153 173 269 16 59 30 123 30 142 0
84 -140 262 -345 439 -215 185 -317 258 -572 411 -95 56 -173 108 -173 115 0
23 -246 135 -296 135 -19 0 -54 10 -77 22 -66 33 -552 193 -662 217 -55 12
-154 35 -220 51 -66 16 -174 34 -240 40 -66 6 -163 18 -215 26 -129 20 -635
36 -764 23 -109 -10 -407 -28 -576 -34 -163 -6 -347 -23 -496 -46 -310 -47
-789 -159 -979 -229 -180 -66 -515 -229 -591 -286 -44 -34 -76 -31 -108 10
-19 25 -26 47 -26 77 l0 43 -35 -34 -35 -34 0 30 c0 16 4 43 9 61 9 30 8 31
-17 30 -34 -3 -49 28 -54 111 l-4 62 38 -37 c21 -20 40 -34 43 -31 3 3 0 28
-6 56 -11 53 -25 69 -88 104 -39 22 -40 52 -3 83 36 30 81 129 89 195 3 27 3
50 0 50 -3 0 -17 -19 -31 -42z m-72 -5023 c-4 -8 -10 -15 -15 -15 -5 0 -9 7
-9 15 0 8 7 15 15 15 9 0 12 -6 9 -15z"/>
<path d="M8453 1094 c-7 -19 2 -28 22 -21 19 8 19 23 0 31 -9 3 -18 -1 -22
-10z"/>
</g>
</svg>
